<?xml version="1.0" encoding="UTF-8" standalone="no"?>
<!-- Created with Inkscape (http://www.inkscape.org/) -->

<svg
   width="52.876522mm"
   height="29.750378mm"
   viewBox="0 0 52.876518 29.750376"
   version="1.1"
   id="svg5"
   inkscape:version="1.3 (0e150ed6c4, 2023-07-21)"
   sodipodi:docname="logo-of-me.svg"
   xml:space="preserve"
   inkscape:export-filename="logo-c-t.svg"
   inkscape:export-xdpi="300"
   inkscape:export-ydpi="300"
   xmlns:inkscape="http://www.inkscape.org/namespaces/inkscape"
   xmlns:sodipodi="http://sodipodi.sourceforge.net/DTD/sodipodi-0.dtd"
   xmlns="http://www.w3.org/2000/svg"
   xmlns:svg="http://www.w3.org/2000/svg"><sodipodi:namedview
     id="namedview7"
     pagecolor="#ffffff"
     bordercolor="#000000"
     borderopacity="1"
     inkscape:showpageshadow="true"
     inkscape:pageopacity="0.0"
     inkscape:pagecheckerboard="false"
     inkscape:deskcolor="#4e4e4e"
     inkscape:document-units="mm"
     showgrid="false"
     showborder="true"
     borderlayer="false"
     showguides="false"
     inkscape:zoom="1.3385357"
     inkscape:cx="279.78334"
     inkscape:cy="692.92137"
     inkscape:window-width="1366"
     inkscape:window-height="745"
     inkscape:window-x="-8"
     inkscape:window-y="-8"
     inkscape:window-maximized="1"
     inkscape:current-layer="layer1"
     labelstyle="below"
     inkscape:clip-to-page="false"
     inkscape:lockguides="false"><inkscape:grid
       type="xygrid"
       id="grid132"
       originx="-135.52971"
       originy="-608.9142"
       visible="false"
       dotted="true"
       spacingy="1"
       spacingx="1"
       units="mm" /><sodipodi:guide
       position="1.0849826,179.62419"
       orientation="1,0"
       id="guide2"
       inkscape:locked="false" /><sodipodi:guide
       position="50.293874,179.62418"
       orientation="1,0"
       id="guide3"
       inkscape:locked="false" /><sodipodi:guide
       position="43.26448,179.62419"
       orientation="1,0"
       id="guide4"
       inkscape:locked="false" /><sodipodi:guide
       position="25.689581,176.06468"
       orientation="1,0"
       id="guide5"
       inkscape:locked="false" /><sodipodi:guide
       position="1.0849816,179.62419"
       orientation="0,-1"
       id="guide6"
       inkscape:locked="false" /><sodipodi:guide
       position="25.689581,204.18349"
       orientation="0,-1"
       id="guide7"
       inkscape:locked="false" /><sodipodi:guide
       position="25.689581,155.01733"
       orientation="0,-1"
       id="guide8"
       inkscape:locked="false" /><sodipodi:guide
       position="11.629862,190.16648"
       orientation="0.70710678,-0.70710678"
       id="guide9"
       inkscape:locked="false" /><sodipodi:guide
       position="15.144701,186.66198"
       orientation="0.70710678,-0.70710678"
       id="guide10"
       inkscape:locked="false" /><sodipodi:guide
       position="18.667001,183.13613"
       orientation="0.70710678,-0.70710678"
       id="guide11"
       inkscape:locked="false" /><sodipodi:guide
       position="22.173441,179.62419"
       orientation="0.70710678,-0.70710678"
       id="guide12"
       inkscape:locked="false" /><sodipodi:guide
       position="25.68958,176.06468"
       orientation="0.70710678,-0.70710678"
       id="guide13"
       inkscape:locked="false" /><sodipodi:guide
       position="32.719281,176.06468"
       orientation="0.70710678,-0.70710678"
       id="guide14"
       inkscape:locked="false" /><sodipodi:guide
       position="32.761541,169.11348"
       orientation="0.70710678,-0.70710678"
       id="guide15"
       inkscape:locked="false" /><sodipodi:guide
       position="25.68958,204.2262"
       orientation="-0.70710678,-0.70710678"
       id="guide16"
       inkscape:locked="false" /><sodipodi:guide
       position="25.68958,197.20686"
       orientation="-0.70710678,-0.70710678"
       id="guide17"
       inkscape:locked="false" /><sodipodi:guide
       position="22.173441,193.68263"
       orientation="-0.70710678,-0.70710678"
       id="guide18"
       inkscape:locked="false" /><sodipodi:guide
       position="20.417141,188.40873"
       orientation="-0.70710678,-0.70710678"
       id="guide19"
       inkscape:locked="false" /><sodipodi:guide
       position="25.68958,176.06468"
       orientation="-0.70710678,-0.70710678"
       id="guide20"
       inkscape:locked="false" /><sodipodi:guide
       position="25.68958,169.03498"
       orientation="-0.70710678,-0.70710678"
       id="guide21"
       inkscape:locked="false" /><sodipodi:guide
       position="22.173441,165.5638"
       orientation="-0.70710678,-0.70710678"
       id="guide22"
       inkscape:locked="false" /><sodipodi:guide
       position="1.0875726,179.62419"
       orientation="-0.70710678,-0.70710678"
       id="guide23"
       inkscape:locked="false" /><sodipodi:guide
       position="82.701165,135.69914"
       orientation="1,0"
       id="guide26"
       inkscape:locked="false" /><inkscape:page
       x="-3.6204174e-06"
       y="-5.6422164e-06"
       width="52.876514"
       height="29.750378"
       id="page1"
       margin="0"
       bleed="0" /></sodipodi:namedview><defs
     id="defs2"><linearGradient
       id="linearGradient4557"
       inkscape:swatch="solid"><stop
         style="stop-color:#5b5b5b;stop-opacity:1;"
         offset="0"
         id="stop4555" /></linearGradient></defs><style
     id="style5056">&#10;		.s0 { fill: url(#g1) } &#10;		.s1 { fill: url(#g2) } &#10;		.s2 { fill: url(#g3) } &#10;		.s3 { fill: url(#g4) } &#10;		.s4 { fill: #ffffff } &#10;		.s5 { fill: url(#g5) } &#10;		.s6 { fill: #f93d6e } &#10;		.s7 { fill: url(#g6) } &#10;		.s8 { fill: url(#g7) } &#10;		.s9 { fill: url(#g8) } &#10;		.s10 { fill: #f7f7f8 } &#10;		.s11 { fill: url(#g9) } &#10;		.s12 { fill: url(#g10) } &#10;		.s13 { fill: url(#g11) } &#10;		.s14 { fill: url(#g12) } &#10;		.s15 { fill: url(#g13) } &#10;		.s16 { fill: url(#g14) } &#10;		.s17 { fill: url(#g15) } &#10;		.s18 { fill: url(#g16) } &#10;		.s19 { fill: url(#g17) } &#10;		.s20 { fill: url(#g18) } &#10;		.s21 { fill: url(#g19) } &#10;		.s22 { fill: url(#g20) } &#10;		.s23 { fill: url(#g21) } &#10;		.s24 { fill: url(#g22) } &#10;		.s25 { fill: url(#g23) } &#10;		.s26 { fill: url(#g24) } &#10;		.s27 { fill: url(#g25) } &#10;	</style><style
     id="style5775">&#10;		.s0 { fill: url(#g1) } &#10;		.s1 { fill: url(#g2) } &#10;		.s2 { fill: url(#g3) } &#10;		.s3 { fill: url(#g4) } &#10;		.s4 { fill: #ffffff } &#10;		.s5 { fill: url(#g5) } &#10;		.s6 { fill: #f93d6e } &#10;		.s7 { fill: url(#g6) } &#10;		.s8 { fill: url(#g7) } &#10;		.s9 { fill: url(#g8) } &#10;		.s10 { fill: #f7f7f8 } &#10;		.s11 { fill: url(#g9) } &#10;		.s12 { fill: url(#g10) } &#10;		.s13 { fill: url(#g11) } &#10;		.s14 { fill: url(#g12) } &#10;		.s15 { fill: url(#g13) } &#10;		.s16 { fill: url(#g14) } &#10;		.s17 { fill: url(#g15) } &#10;		.s18 { fill: url(#g16) } &#10;		.s19 { fill: url(#g17) } &#10;		.s20 { fill: url(#g18) } &#10;		.s21 { fill: url(#g19) } &#10;		.s22 { fill: url(#g20) } &#10;		.s23 { fill: url(#g21) } &#10;		.s24 { fill: url(#g22) } &#10;		.s25 { fill: url(#g23) } &#10;		.s26 { fill: url(#g24) } &#10;		.s27 { fill: url(#g25) } &#10;	</style><g
     inkscape:groupmode="layer"
     id="layer1"
     inkscape:label="Logo with text"
     transform="matrix(1.654235,0,0,1.654235,94.974397,105.98904)"><g
       id="g36"
       inkscape:label="طولي"
       transform="translate(-3.7219233,39.555646)"
       inkscape:export-filename=".\logo-r.png"
       inkscape:export-xdpi="1000"
       inkscape:export-ydpi="1000"
       style="fill:#ffffff;fill-opacity:1"><path
         id="path17452"
         style="display:inline;fill:#ffffff;fill-opacity:1;stroke-width:0.264583;stroke-linejoin:bevel;paint-order:stroke fill markers"
         d="m -30.726561,-103.62697 -3.85718,3.841562 3.85718,3.8573 2.57078,-2.571019 1.28416,1.28344 -2.56937,2.572202 1.28581,1.302026 2.58238,-2.576231 1.27492,1.274205 -3.85848,3.861329 1.28687,1.282256 5.14287,-5.143585 -5.14287,-5.141923 z m 3.85707,14.12707 -3.85707,-3.841559 -2.56924,2.558829 -1.27623,-1.279058 2.55931,-2.581797 -1.28261,-1.284623 -2.57457,2.565817 -1.27847,-1.281194 2.56463,-2.574337 -1.28569,-1.2819 -3.85719,3.856237 5.14288,5.143585 3.85718,3.8573 z m -3.85707,-11.57179 1.28557,1.286164 -1.28557,1.285804 -1.28616,-1.28616 z m 0,10.285509 1.28557,1.286163 -1.28557,1.285804 -1.28616,-1.28616 z"
         inkscape:export-filename=".\path17452.svg"
         inkscape:export-xdpi="300"
         inkscape:export-ydpi="300" /><text
         xml:space="preserve"
         style="font-style:normal;font-variant:normal;font-weight:normal;font-stretch:normal;font-size:6.35px;line-height:1;font-family:'Hacen Samra';-inkscape-font-specification:'Hacen Samra, Normal';font-variant-ligatures:normal;font-variant-caps:normal;font-variant-numeric:normal;font-variant-east-asian:normal;text-align:end;writing-mode:lr-tb;direction:rtl;text-anchor:end;display:inline;fill:#ffffff;fill-opacity:1;stroke-width:0.264583;stroke-linejoin:bevel;paint-order:stroke fill markers"
         x="-40.6964"
         y="-96.817764"
         id="text17460"
         inkscape:label="محمد الجبلي نص"><tspan
           sodipodi:role="line"
           id="tspan17456"
           style="font-style:normal;font-variant:normal;font-weight:normal;font-stretch:normal;font-size:6.35px;font-family:'Hacen Samra';-inkscape-font-specification:'Hacen Samra, Normal';font-variant-ligatures:normal;font-variant-caps:normal;font-variant-numeric:normal;font-variant-east-asian:normal;text-align:start;text-anchor:start;fill:#ffffff;fill-opacity:1;stroke-width:0.264583"
           x="-40.6964"
           y="-96.817764">محمد</tspan><tspan
           sodipodi:role="line"
           style="font-style:normal;font-variant:normal;font-weight:normal;font-stretch:normal;font-size:6.35px;font-family:'Hacen Samra';-inkscape-font-specification:'Hacen Samra, Normal';font-variant-ligatures:normal;font-variant-caps:normal;font-variant-numeric:normal;font-variant-east-asian:normal;text-align:start;text-anchor:start;fill:#ffffff;fill-opacity:1;stroke-width:0.264583"
           x="-40.6964"
           y="-90.467766"
           id="tspan17458">الجبلي</tspan></text><g
         id="text37"
         style="font-size:6.35px;line-height:1;font-family:'Hacen Samra';-inkscape-font-specification:'Hacen Samra, Normal';text-align:end;direction:rtl;text-anchor:end;display:inline;fill:#ffffff;fill-opacity:1;stroke-width:0.264583;stroke-linejoin:bevel;paint-order:stroke fill markers"
         inkscape:label="محمد الجبلي رسم"
         aria-label="محمد&#10;الجبلي"><path
           style="text-align:start;text-anchor:start;fill:#ffffff;fill-opacity:1"
           d="m -42.829602,-99.785025 h 1.5875 q 0.07441,0 0.139526,0.02791 0.06511,0.02791 0.111621,0.07752 0.04961,0.04961 0.07751,0.114722 0.02791,0.06201 0.02791,0.136425 v 1.79524 q 0,0.07441 -0.02791,0.139526 -0.0279,0.06201 -0.07751,0.111621 -0.04651,0.04961 -0.111621,0.07751 -0.06511,0.02791 -0.139526,0.02791 h -2.229322 v -0.815454 h 0.285254 v -1.336353 q 0,-0.07441 0.02791,-0.136425 0.02791,-0.06511 0.07751,-0.114722 0.04961,-0.04961 0.111621,-0.07752 0.06511,-0.02791 0.139527,-0.02791 z m 0.455786,0.818555 v 0.874365 h 0.675928 v -0.874365 z m -1.047998,0.874365 v 0.815454 h -2.914551 v -0.815454 h 1.816943 q -0.0093,-0.192236 -0.07131,-0.31626 -0.06201,-0.124023 -0.15813,-0.204639 -0.09612,-0.08061 -0.217041,-0.130224 -0.120923,-0.04961 -0.251148,-0.08992 -0.127124,-0.04031 -0.257348,-0.08061 -0.130225,-0.04341 -0.241846,-0.111621 -0.111621,-0.07131 -0.201538,-0.176734 -0.08682,-0.10542 -0.130225,-0.269751 -0.0248,-0.09302 -0.0248,-0.176733 0.0031,-0.08372 0.0217,-0.142627 0.0186,-0.05891 0.04961,-0.08372 0.03101,-0.0279 0.06201,-0.0093 0.151929,0.09922 0.313159,0.151929 0.16123,0.04961 0.322461,0.08372 0.164331,0.03101 0.325561,0.05891 0.161231,0.0279 0.31316,0.08061 0.155029,0.05271 0.297656,0.145728 0.142627,0.09302 0.26355,0.257348 0.124023,0.161231 0.226342,0.409278 0.10232,0.244946 0.176734,0.604614 z m -5.088062,-1.69292 h 1.593701 q 0.07131,0 0.136426,0.02791 0.06511,0.02791 0.111621,0.07752 0.04961,0.04961 0.07752,0.114722 0.0279,0.06201 0.0279,0.136425 v 1.336353 h 0.275952 v 0.815454 h -2.85874 v -0.815454 h 0.279053 v -1.336353 q 0,-0.07441 0.0279,-0.136425 0.0279,-0.06511 0.07751,-0.114722 0.04961,-0.04961 0.111621,-0.07752 0.06511,-0.02791 0.139526,-0.02791 z m 0.458887,0.818555 v 0.874365 h 0.672827 v -0.874365 z m -1.0542,0.874365 v 0.815454 h -2.340942 q -0.07131,0 -0.136426,-0.02791 -0.06511,-0.02791 -0.114721,-0.07751 -0.04961,-0.04961 -0.07752,-0.111621 -0.0279,-0.06511 -0.0279,-0.139526 v -0.458887 h 1.5875 v -0.874365 h -0.446485 q -0.238745,-0.0062 -0.418579,-0.08372 -0.179834,-0.07752 -0.310058,-0.192236 -0.124024,-0.108521 -0.201538,-0.229444 -0.07751,-0.124023 -0.111622,-0.223242 -0.03411,-0.102319 -0.02791,-0.15813 0.0062,-0.05891 0.05271,-0.03721 0.111621,0.04961 0.266651,0.07131 0.155029,0.0217 0.31936,0.02791 0.167431,0.0062 0.328662,0.0062 0.16123,-0.0031 0.282153,0 h 0.725537 q 0.07441,0 0.136426,0.02791 0.06511,0.02791 0.114722,0.07752 0.04961,0.04961 0.07751,0.114722 0.02791,0.06201 0.02791,0.136425 v 1.336353 z"
           id="path37" /><path
           style="text-align:start;text-anchor:start;fill:#ffffff;fill-opacity:1"
           d="m -40.885536,-94.634952 v 3.351734 q 0,0.07441 -0.0279,0.139526 -0.02791,0.06201 -0.07441,0.111621 -0.04651,0.04961 -0.111621,0.07752 -0.06511,0.0279 -0.139526,0.0279 h -0.458887 v -3.348633 q 0,-0.07441 0.02791,-0.139526 0.0279,-0.06511 0.07751,-0.111621 0.04961,-0.04961 0.111621,-0.07751 0.06511,-0.03101 0.139526,-0.03101 z m -2.523876,2.892847 h 0.297656 v -2.892847 h 0.458887 q 0.07441,0 0.136425,0.03101 0.06511,0.0279 0.111621,0.07751 0.04961,0.04651 0.07751,0.111621 0.02791,0.06511 0.02791,0.139526 v 2.992066 q 0,0.07441 -0.02791,0.139526 -0.0279,0.06201 -0.07751,0.111621 -0.04651,0.04961 -0.111621,0.07752 -0.06201,0.0279 -0.136425,0.0279 h -0.756543 z m 0.04961,0 v 0.815454 h -2.914551 v -0.815454 h 1.816943 q -0.0093,-0.192237 -0.07131,-0.31626 -0.06201,-0.124023 -0.15813,-0.204639 -0.09612,-0.08062 -0.217041,-0.130224 -0.120923,-0.04961 -0.251147,-0.08992 -0.127124,-0.04031 -0.257349,-0.08062 -0.130225,-0.04341 -0.241846,-0.111622 -0.111621,-0.07131 -0.201538,-0.176733 -0.08682,-0.10542 -0.130224,-0.269751 -0.02481,-0.09302 -0.02481,-0.176733 0.0031,-0.08372 0.0217,-0.142627 0.0186,-0.05891 0.04961,-0.08372 0.03101,-0.02791 0.06201,-0.0093 0.151929,0.09922 0.313159,0.151929 0.161231,0.04961 0.322461,0.08372 0.164331,0.03101 0.325562,0.05891 0.16123,0.02791 0.313159,0.08061 0.155029,0.05271 0.297656,0.145728 0.142627,0.09302 0.26355,0.257348 0.124023,0.161231 0.226343,0.409278 0.102319,0.244946 0.176733,0.604614 z m -1.624707,1.203027 q 0.08682,0 0.164331,0.03411 0.07751,0.03411 0.133325,0.08992 0.05891,0.05891 0.08992,0.136425 0.03411,0.07751 0.03411,0.164331 0,0.08682 -0.03411,0.164331 -0.03101,0.07752 -0.08992,0.133326 -0.05581,0.05891 -0.133325,0.08992 -0.07751,0.03411 -0.164331,0.03411 -0.08682,0 -0.164331,-0.03411 -0.07752,-0.03101 -0.136426,-0.08992 -0.05581,-0.05581 -0.08992,-0.133326 -0.03101,-0.07751 -0.03101,-0.164331 0,-0.08682 0.03101,-0.164331 0.03411,-0.07751 0.08992,-0.136425 0.05891,-0.05581 0.136426,-0.08992 0.07751,-0.03411 0.164331,-0.03411 z m -1.240234,-1.203027 v 0.815454 h -1.379761 v -0.815454 h 0.285254 v -1.336353 q 0,-0.07441 0.02791,-0.136425 0.0279,-0.06511 0.07751,-0.114722 0.04961,-0.04961 0.111621,-0.07752 0.06511,-0.0279 0.139526,-0.0279 h 0.458887 v 1.69292 z m -0.675928,1.203027 q 0.08682,0 0.164331,0.03411 0.07752,0.03411 0.133325,0.08992 0.05891,0.05891 0.09302,0.136425 0.03411,0.07751 0.03411,0.164331 0,0.08682 -0.03411,0.164331 -0.03411,0.07752 -0.09302,0.133326 -0.05581,0.05891 -0.133325,0.08992 -0.07751,0.03411 -0.164331,0.03411 -0.08682,0 -0.164331,-0.03411 -0.07752,-0.03101 -0.136426,-0.08992 -0.05581,-0.05581 -0.08992,-0.133326 -0.03101,-0.07751 -0.03101,-0.164331 0,-0.08682 0.03101,-0.164331 0.03411,-0.07751 0.08992,-0.136425 0.05891,-0.05581 0.136426,-0.08992 0.07751,-0.03411 0.164331,-0.03411 z m -0.663525,-1.203027 v 0.815454 h -1.389063 v -0.815454 h 0.297656 v -2.533179 q 0,-0.07441 0.02791,-0.139526 0.02791,-0.06511 0.07441,-0.111621 0.04961,-0.04961 0.111621,-0.07751 0.06511,-0.03101 0.139526,-0.03101 h 0.458887 v 2.892847 z m -4.142383,1.522387 q 0.08682,0 0.16123,0.03101 0.07751,0.03411 0.133325,0.08992 0.05891,0.05891 0.08992,0.136426 0.03411,0.07751 0.03411,0.164331 0,0.08682 -0.03411,0.164331 -0.03101,0.07752 -0.08992,0.133325 -0.05581,0.05891 -0.133325,0.09302 -0.07441,0.03411 -0.16123,0.03411 -0.08682,0 -0.164331,-0.03411 -0.07751,-0.03411 -0.136426,-0.09302 -0.05581,-0.05581 -0.08992,-0.133325 -0.03411,-0.07751 -0.03411,-0.164331 0,-0.08682 0.03411,-0.164331 0.03411,-0.07752 0.08992,-0.136426 0.05891,-0.05581 0.136426,-0.08992 0.07751,-0.03101 0.164331,-0.03101 z m -0.958081,0 q 0.08682,0 0.164331,0.03101 0.07751,0.03411 0.133325,0.08992 0.05891,0.05891 0.08992,0.136426 0.03411,0.07751 0.03411,0.164331 0,0.08682 -0.03411,0.164331 -0.03101,0.07752 -0.08992,0.133325 -0.05581,0.05891 -0.133325,0.09302 -0.07752,0.03411 -0.164331,0.03411 -0.08682,0 -0.164331,-0.03411 -0.07751,-0.03411 -0.136426,-0.09302 -0.05581,-0.05581 -0.08992,-0.133325 -0.03101,-0.07751 -0.03101,-0.164331 0,-0.08682 0.03101,-0.164331 0.03411,-0.07752 0.08992,-0.136426 0.05891,-0.05581 0.136426,-0.08992 0.07751,-0.03101 0.164331,-0.03101 z m 3.119189,-3.215307 q 0.07441,0 0.136426,0.0279 0.06511,0.02791 0.114722,0.07752 0.04961,0.04961 0.07751,0.114722 0.02791,0.06201 0.02791,0.136425 v 1.336353 h 0.285253 v 0.815454 h -0.747241 q -0.07441,0 -0.139526,-0.0279 -0.06201,-0.02791 -0.111621,-0.07752 -0.04651,-0.04961 -0.07441,-0.111621 -0.02481,-0.06511 -0.02481,-0.139526 l -0.0031,-1.333252 h -0.675927 l 0.0031,0.843359 q -0.0186,0.313159 -0.151928,0.564307 -0.130225,0.251147 -0.337964,0.42788 -0.20774,0.173633 -0.471289,0.269751 -0.26355,0.09302 -0.542603,0.09302 -0.279053,0.0031 -0.555005,-0.08992 -0.272851,-0.09612 -0.505395,-0.300757 -0.173633,-0.151929 -0.266651,-0.313159 -0.08992,-0.164331 -0.133325,-0.337964 -0.04031,-0.176733 -0.04651,-0.365869 -0.0031,-0.192236 -0.0031,-0.399976 0,-0.07131 0.02791,-0.136425 0.0279,-0.06511 0.07751,-0.111621 0.04961,-0.04961 0.111621,-0.07751 0.06511,-0.03101 0.139526,-0.03101 h 0.455786 v 0.564307 q -0.0124,0.176733 0.03411,0.316259 0.04961,0.139527 0.136426,0.238746 0.08992,0.09922 0.207739,0.158129 0.120923,0.05891 0.248047,0.07752 0.127124,0.0155 0.254248,-0.0062 0.127124,-0.02481 0.232544,-0.09302 0.10542,-0.06821 0.179834,-0.179834 0.07441,-0.111621 0.09612,-0.26665 l -0.0031,-1.305347 q 0,-0.07441 0.02791,-0.136425 0.02791,-0.06511 0.07441,-0.114722 0.04961,-0.04961 0.114721,-0.07752 0.06511,-0.0279 0.136426,-0.0279 z"
           id="path38" /></g></g></g></svg>
